<?xml version="1.0" standalone="no"?>
<!DOCTYPE svg PUBLIC "-//W3C//DTD SVG 20010904//EN"
 "http://www.w3.org/TR/2001/REC-SVG-20010904/DTD/svg10.dtd">
<svg version="1.0" xmlns="http://www.w3.org/2000/svg"
 width="119.000000pt" height="119.000000pt" viewBox="0 0 119.000000 119.000000"
 preserveAspectRatio="xMidYMid meet">
<metadata>
Created by potrace 1.14, written by Peter Selinger 2001-2017
</metadata>
<g transform="translate(0.000000,119.000000) scale(0.100000,-0.100000)"
fill="#000000" stroke="none">
<path d="M451 1175 c-199 -56 -354 -211 -406 -405 -8 -31 -15 -100 -15 -157 0
-166 50 -284 169 -404 285 -285 785 -179 926 196 24 64 33 135 17 135 -13 0
-32 -23 -32 -38 0 -25 -52 -146 -77 -179 -28 -38 -53 -43 -52 -10 0 19 1 20 8
3 5 -14 13 -2 34 50 47 117 59 245 25 252 -15 3 -18 -4 -18 -47 0 -63 2 -48
-21 -133 -11 -40 -25 -78 -31 -85 -6 -7 -18 -28 -28 -45 -19 -37 -100 -107
-96 -85 1 8 18 34 38 58 66 82 101 170 100 257 -1 80 3 75 -54 68 -65 -9 -122
-35 -168 -78 -60 -57 -68 -61 -66 -41 0 11 -5 17 -14 15 -8 -1 -1 10 17 25
129 114 158 128 299 138 49 4 94 8 99 8 6 1 11 -11 13 -27 2 -18 0 -26 -7 -21
-7 3 -11 -2 -11 -13 0 -18 18 -32 41 -32 5 0 9 43 9 95 0 110 -17 169 -73 256
-41 64 -151 169 -178 169 -9 0 -19 5 -21 12 -5 14 -38 3 -38 -13 0 -6 9 -13
20 -16 11 -3 20 -10 20 -15 0 -5 14 -15 31 -22 l31 -13 -34 -28 c-18 -15 -82
-74 -143 -130 -60 -57 -121 -112 -135 -123 -22 -19 -23 -22 -10 -36 14 -14 19
-13 51 14 20 16 40 26 44 22 5 -4 5 -2 2 4 -6 10 65 84 118 124 19 14 19 14 6
-3 -12 -15 -12 -20 -2 -26 14 -9 19 -4 -110 -126 -88 -84 -127 -115 -145 -115
-8 0 -11 6 -8 15 4 10 0 15 -12 15 -18 1 -18 1 0 11 15 9 16 13 5 20 -11 7
-10 9 4 9 9 0 17 5 17 10 0 17 -29 23 -45 10 -12 -10 -15 -10 -15 1 0 10 -3
10 -12 1 -7 -7 -24 -12 -39 -12 -38 0 -59 -9 -53 -25 3 -7 -5 -14 -21 -17 -19
-4 -25 -2 -21 8 3 8 -2 14 -12 15 -9 1 0 6 20 13 44 13 88 52 88 78 0 26 -31
22 -55 -7 -23 -27 -98 -47 -93 -24 2 7 13 22 26 32 12 10 22 26 22 36 0 35 21
41 46 13 20 -24 25 -25 43 -14 12 7 21 8 21 3 0 -16 38 -23 60 -11 11 6 20 18
20 27 0 23 -29 53 -46 46 -8 -3 -18 5 -24 22 -5 14 -14 23 -20 20 -5 -3 -10 3
-10 14 0 17 -32 38 -52 33 -3 -1 -3 12 2 28 11 37 -2 46 -26 19 -10 -12 -28
-26 -39 -31 -11 -6 0 8 25 30 25 23 55 44 67 48 13 3 21 10 18 14 -8 14 31 40
68 44 45 6 77 22 77 40 0 8 9 16 19 19 38 10 13 -32 -58 -100 -68 -65 -86 -93
-58 -93 8 0 45 30 83 66 88 84 123 101 172 86 28 -9 38 -9 44 1 14 21 9 26
-44 43 -75 23 -249 28 -317 9z m-67 -129 c-21 -15 -30 -14 -19 3 3 6 14 11 23
11 13 0 13 -2 -4 -14z m-117 -95 c-26 -27 -65 -78 -87 -112 -50 -77 -51 -68
-4 22 34 63 119 157 132 144 3 -2 -16 -27 -41 -54z m727 18 c31 -37 32 -41 6
-64 -17 -15 -20 -16 -15 -3 4 9 -3 35 -13 57 -24 49 -14 53 22 10z m-44 7 c0
-3 -4 -8 -10 -11 -5 -3 -10 -1 -10 4 0 6 5 11 10 11 6 0 10 -2 10 -4z m-587
-35 c18 5 33 9 34 9 2 0 -19 -63 -27 -79 -14 -30 -29 -22 -25 13 2 25 -1 36
-10 36 -8 0 -16 -4 -20 -10 -3 -5 -12 -7 -20 -3 -8 3 -15 1 -15 -5 0 -5 -8
-13 -17 -17 -10 -3 0 12 22 35 27 28 41 37 43 26 2 -11 10 -12 35 -5z m587
-53 c0 -5 -16 -16 -35 -24 -43 -18 -49 -18 -33 0 7 8 17 12 22 9 4 -3 5 3 2
14 -6 17 -3 20 19 15 14 -2 25 -9 25 -14z m123 -33 c22 -47 21 -57 -5 -54 -13
1 -36 -3 -52 -10 -16 -6 -43 -10 -60 -9 -18 1 -37 -1 -43 -5 -6 -4 -28 -9 -49
-12 l-39 -6 30 25 c17 13 56 32 87 42 32 9 67 28 79 40 13 13 25 24 29 24 3 0
14 -16 23 -35z m-578 -5 c-3 -5 -12 -10 -18 -10 -7 0 -6 4 3 10 19 12 23 12
15 0z m-166 -45 c1 15 4 16 13 7 10 -10 10 -15 -2 -22 -17 -11 -43 7 -33 23 4
6 9 3 14 -9 7 -19 8 -19 8 1z m781 -69 c0 -20 -5 -23 -42 -24 -54 -2 -135 -11
-170 -18 -18 -4 -33 0 -44 11 -21 21 -16 25 48 35 29 5 68 12 86 16 18 3 38 2
45 -4 8 -7 20 -6 37 3 30 16 40 11 40 -19z m-838 -28 c-7 -7 -12 -8 -12 -2 0
14 12 26 19 19 2 -3 -1 -11 -7 -17z m482 -32 c-4 -12 1 -14 23 -10 l28 4 -35
-30 c-84 -74 -133 -110 -149 -110 -27 0 -22 35 8 53 15 9 50 37 77 62 55 50
56 51 48 31z m203 -163 c-5 -64 -33 -143 -50 -143 -6 0 -8 3 -4 6 3 3 0 12 -6
19 -9 10 -15 10 -26 1 -12 -9 -12 -8 -3 10 23 44 -35 74 -62 32 -8 -13 -6 -22
8 -37 11 -12 14 -21 8 -21 -7 0 -15 0 -19 0 -5 0 -8 6 -8 13 -1 13 -26 11 -35
-3 -3 -4 -15 -10 -28 -11 l-23 -4 21 -23 c17 -18 25 -21 36 -11 7 6 11 15 8
20 -3 5 -1 9 4 9 9 0 22 -22 27 -46 2 -6 -13 -16 -32 -22 -29 -9 -34 -8 -29 4
3 8 1 14 -4 14 -5 0 -17 14 -27 30 -11 19 -23 28 -33 25 -21 -7 127 133 165
156 40 25 45 24 44 -8 -3 -50 -1 -56 16 -40 10 10 13 25 9 45 -5 26 -3 31 17
35 13 2 26 5 28 6 2 0 1 -25 -2 -56z m-133 -247 c-21 -15 -30 -14 -19 3 3 6
14 11 23 11 13 0 13 -2 -4 -14z m-232 -26 c-30 -29 -40 -25 -12 5 13 14 26 23
28 20 3 -3 -4 -14 -16 -25z"/>
<path d="M1010 839 c0 -5 5 -7 10 -4 6 3 10 8 10 11 0 2 -4 4 -10 4 -5 0 -10
-5 -10 -11z"/>
<path d="M745 1050 c-15 -17 -16 -24 -7 -45 7 -15 8 -25 2 -25 -6 0 -10 -5
-10 -11 0 -8 5 -8 15 1 8 7 21 10 30 7 8 -4 17 -2 21 4 3 6 12 8 20 5 10 -4
12 2 7 27 -7 37 -11 43 -39 51 -14 4 -27 0 -39 -14z"/>
<path d="M641 1031 c-19 -12 -6 -41 19 -41 16 0 21 5 18 22 -3 25 -17 32 -37
19z"/>
<path d="M436 1022 c-3 -6 -1 -14 5 -17 15 -10 25 3 12 16 -7 7 -13 7 -17 1z"/>
<path d="M436 981 c-3 -5 0 -11 8 -14 8 -3 17 1 20 9 6 15 -19 20 -28 5z"/>
<path d="M565 940 c-11 -17 5 -32 21 -19 7 6 11 15 8 20 -7 12 -21 11 -29 -1z"/>
<path d="M722 929 c2 -6 8 -10 13 -10 5 0 11 4 13 10 2 6 -4 11 -13 11 -9 0
-15 -5 -13 -11z"/>
<path d="M633 893 c-7 -2 -13 -13 -13 -23 0 -23 18 -36 44 -31 13 2 17 -2 13
-13 -4 -10 -1 -13 9 -9 16 6 19 23 5 23 -5 0 -11 12 -13 27 -3 27 -20 37 -45
26z"/>
<path d="M575 799 c-10 -15 3 -25 16 -12 7 7 7 13 1 17 -6 3 -14 1 -17 -5z"/>
</g>
</svg>
